<?xml version="1.0" encoding="UTF-8"?><svg id="Calque_2" xmlns="http://www.w3.org/2000/svg" viewBox="0 0 62.36 18.2"><g id="contenus"><path d="M12.48,2.36c.85-.51,1.73-1.2,2.52-2,.62-.63-2.09-.35-2.75.21-.7.6-1.42,1.26-2.08,2.04-.39.45,1.47.26,2.31-.25ZM62.05,16.42c.48.29.46-1.22-.51-1.82-3.47-2.16-12.97,1.61-16.58,2.04-.68.08-.92-.09-.76-.55.31-.88,1.51-2.51,1.75-3.07.23-.53.2-2.37-2.52-2.37-2.22,0-4.26,1.03-5.69,2.33-1.36,1.16-4.01,3.46-5.63,3.46s3.25-5.09,3.52-5.34c.73-.69-1.58-.52-2.55.22-.39.3-1.94,1.95-2.91,3.56-2.8,1.94-5.6,2.39-4.27.78.71-.86,1.9-2.01,2.72-2.92,1.15-1.27.94-2.11-1.59-2.11-3.39,0-3.75.3-5.66,2.54-.35.42-.17,1.46.2,1.1,2.3-2.27,2.24-2.09,5.28-2.09-.49.52-1.36,1.04-2.84,2.91-1.32,1.67-.46,3.02,1.41,3.02,1.03,0,2.58-.48,3.99-1.48-.17.87.18,1.49,1.51,1.49,1.54,0,3.3-.92,4.76-1.94-.18,1.11.39,1.94,2.02,1.94,1.26,0,2.72-.49,4.23-1.8,0,1,.7,1.79,2.01,1.79,3.2,0,14.26-4.01,18.1-1.7ZM38.57,16.68c-2.1,0,2.1-4.8,4.84-4.8,1.64,0-2.82,4.8-4.84,4.8ZM36.91,9.27c.85-.51,2.46-1.76,3.24-2.56.62-.63-2.1-.35-2.75.21-.7.6-1.87,1.68-2.53,2.45-.39.45,1.19.41,2.03-.1ZM20.34,14.38c-.82.8-2.62,2.15-4.19,2.15-1.16,0,1.15-2.08,2.3-3.76,1.1-1.61.2-2.09-.7-2.09-2.24,0-4.43,1.57-5.91,2.68.45-.6,1.15-1.37,1.89-2.35.41-.55-2.06-.35-2.69.48-.2.26-.42.56-.66.87-2.14,2.58-5.38,4.31-6.97,4.31-.89,0-1.21-.61-.66-1.76,1.33-2.78,5.91-8.06,8.39-10.37,1.13-1.06-2.26-.63-3.04.15C4.65,8.16,1.18,12.03.2,15.04c-.54,1.67-.04,3.16,2.03,3.16,1.7,0,3.58-.84,5.18-1.84-.39.54-.75,1.02-1.04,1.42-.45.61,1.84.39,2.32-.23,1.81-2.31,6.16-5.16,7.37-5.16,1.1,0-2.69,2.84-2.66,4.58.04,2.29,5.34.89,7.13-1.47.28-.37.06-1.38-.19-1.13Z" style="fill:#e1000f; stroke-width:0px;"/></g></svg>